# xmcd
#
# Track frame offsets:
#	150
#	12777
#	28056
#	39921
#	49783
#	60034
#	72097
#	84735
#	96289
#	111611
#	124065
#	136804
#	150604
#	160728
#	172291
#	185652
#	198128
#	212625
#	222853
#	236134
#
# Disc length: 3327 seconds
#
# Revision: 0
# Processed by: cddbd v1.5.2PL0 Copyright (c) Steve Scherf et al.
# Submitted via: dBpowerAMP V4.0
#
DISCID=150cfd14
DTITLE=diverse - Von Cowboys CD2
DYEAR=1900
DGENRE=Schlager
TTITLE0=Gus Backun - Da sprach der alte Häuptling der Indianer
TTITLE1=Kilima Hawaiians - Es hängt ein Pferdehalfter an der Wand
TTITLE2=Peter Hinnen - Rosemarie
TTITLE3=Ted Herold - Texas Baby
TTITLE4=Bruce Low - Der Tom aus Tennesssee
TTITLE5=James Brothers - Cowboy Billy
TTITLE6=Die Tramps - Am Missouri
TTITLE7=Kilima Hawaiians - Hol' den Rappen, Old Jim
TTITLE8=Willy Schneider - Heimweh nach Virginia
TTITLE9=Bruce Low - Wilde Rose von Arizona
TTITLE10=Die Flamingos - Tom Rock aus Alabama
TTITLE11=Bruce Low - Das alte Haus von Rocky Docky
TTITLE12=Caterina Valente - Der Sheriff von Arkansas
TTITLE13=Peter Alexander - Missouri Cowboy, du musst Dein Pferd verkaufen
TTITLE14=Hans Albers - In Arkansas
TTITLE15=Kilima Hawaiians - Cowboy's Heimweh
TTITLE16=Johannes Heesters - Über die Prärie
TTITLE17=Conny Froboess - Mein Vater war ein Cowboy
TTITLE18=Bruse Low - Leise rauscht der Missouri
TTITLE19=Laila Negra - Virginia Blues
EXTD=CD2
EXTT0=
EXTT1=
EXTT2=
EXTT3=
EXTT4=
EXTT5=
EXTT6=
EXTT7=
EXTT8=
EXTT9=
EXTT10=
EXTT11=
EXTT12=
EXTT13=
EXTT14=
EXTT15=
EXTT16=
EXTT17=
EXTT18=
EXTT19=
PLAYORDER=
